<svg width="107" height="22" viewBox="0 0 107 22" fill="none" xmlns="http://www.w3.org/2000/svg">
<path d="M66.9647 4.8269H62.1815V20.6209H65.7448V11.3756L69.6291 20.6209H72.8071L76.884 10.862V20.6209H80.4473V4.8269H75.5037L71.2021 15.0673L66.9647 4.8269Z" fill="black"/>
<path d="M3.95989 9.0573V20.6361H0.578674V7.197L11.8494 0.715698L23.1201 7.197V20.6361H19.7389V9.0573L11.8494 4.52039L3.95989 9.0573Z" fill="black"/>
<path d="M51.8926 4.31104C56.4783 4.31111 60.1952 8.11044 60.1954 12.7974C60.1954 17.4845 56.4784 21.2846 51.8926 21.2847C47.3068 21.2847 43.5889 17.4845 43.5889 12.7974C43.5891 8.11039 47.307 4.31104 51.8926 4.31104ZM51.8926 8.15186C49.3968 8.15186 47.3731 10.2322 47.3731 12.7983C47.3734 15.3643 49.397 17.4438 51.8926 17.4438C54.3881 17.4436 56.4109 15.3641 56.4112 12.7983C56.4112 10.2323 54.3883 8.15206 51.8926 8.15186Z" fill="black"/>
<path d="M17.8682 13.0804C17.6957 14.6156 16.9788 16.033 15.8525 17.0638C14.7262 18.0947 13.2687 18.6679 11.7568 18.6742C10.245 18.6804 8.7829 18.1194 7.64844 17.098C6.51392 16.0764 5.78505 14.6641 5.60059 13.1302L9.0498 12.6967C9.19086 14.2633 10.3375 15.4847 11.7314 15.4847C13.1318 15.4847 14.2816 14.252 14.4141 12.6752L17.8682 13.0804Z" fill="black"/>
<path d="M31.9098 4.8269H28.3145V20.6851H31.9098V14.4895H38.2338V20.6851H41.7971V4.8269H38.2338V10.9583H31.9098V4.8269Z" fill="black"/>
<path d="M93.2239 4.89117H83.0156V20.6851H93.2239V17.4041H86.5901V14.3804H92.5799V11.1959H86.5901V8.2687H93.2239V4.89117Z" fill="black"/>
<path d="M106.713 8.95067C105.561 9.28767 103.611 9.81361 103.611 9.81361C103.611 9.81361 103.431 9.01018 103.009 8.62335C102.587 8.23651 102.196 8.05301 101.503 7.93895C100.72 7.81 99.6361 8.05797 99.0941 8.8614C98.552 9.66483 99.1242 10.7063 100.269 10.9444C101.413 11.1824 103.16 11.2717 104.665 12.1049C106.171 12.938 106.711 13.9795 106.954 15.2591C107.033 15.6756 107.095 17.2166 106.171 18.443C104.915 20.1094 103.099 20.4749 102.377 20.5557C100.78 20.7343 99.5174 20.6276 98.3111 20.1094C97.1047 19.5911 96.5382 19.1227 95.7546 18.0387C95.001 16.9963 94.9382 15.8542 94.9382 15.8542L98.0702 15.1103C98.0702 15.1103 98.3412 16.1815 98.6423 16.5386C99.1243 17.1101 99.8182 17.5789 100.78 17.6396C102.196 17.7288 103.083 17.342 103.34 16.7766C103.598 16.2113 103.508 15.4742 103.069 15.14C102.015 14.3366 100.329 14.457 99.2145 14.0985C97.7905 13.6404 96.7752 13.1761 96.0224 11.8371C95.3356 10.6156 95.2996 9.12921 95.9922 7.67114C96.6849 6.21307 98.5299 5.21769 100.178 4.99305C101.925 4.755 103.335 5.00791 104.816 5.97501C106.297 6.94212 106.713 8.95067 106.713 8.95067Z" fill="black"/>
</svg>
